<svg width="90" height="90" viewBox="0 0 90 90" xmlns="http://www.w3.org/2000/svg">
    <path d="M0 0H90L0 90V0Z" fill="#FF0000"/>
    <path d="M18.6 40.23c-.58-.47-1.23-.64-1.94-.52-.71.12-1.39.5-2.05 1.17-.47.47-.8.94-.99 1.42-.19.47-.26.91-.19 1.33.06.42.24.79.55 1.12.26.26.54.42.85.5.31.07.63.06.95-.02.33-.08.66-.2.99-.36.33-.15.65-.34.98-.55l1.45-.87c.57-.34 1.16-.63 1.78-.87.62-.25 1.24-.41 1.86-.48.63-.06 1.24-.01 1.82.17.58.16 1.13.46 1.66.9.72.72 1.18 1.54 1.36 2.44.18.91.08 1.79-.29 2.66-.39.99-1.08 1.98-2.07 2.96-.96.96-1.95 1.65-2.96 2.07-1.01.41-2.02.51-3.03.29-.96-.17-1.88-.65-2.76-1.42l2.2-2.2c.46.4.93.63 1.41.69.49.06.96-.04 1.42-.3.48-.24.92-.58 1.34-1.02.46-.49.8-.98 1.03-1.49.23-.52.33-1.02.3-1.52-.06-.48-.26-.88-.6-1.2-.33-.32-.69-.49-1.1-.52-.4-.03-.79.04-1.17.21-.37.17-.75.38-1.13.62l-1.77 1.04c-1.28.76-2.47 1.18-3.56 1.25-1.12.07-2.13-.27-3.04-1.14-.73-.73-1.17-1.57-1.31-2.52-.15-.95-.01-1.89.42-2.8.38-.99 1.01-1.99 1.87-2.88.88-.88 1.85-1.5 2.91-1.86 1.07-.36 2.14-.39 3.21-.09.91.16 1.72.56 2.44 1.19l-2.15 2.15ZM35.98 41.1c-.9.9-1.88 1.48-2.97 1.73-1.06.26-2.14.21-3.25-.15-.92-.34-1.89-.94-2.9-1.89-.96-.96-1.62-2.02-1.96-3.18-.34-1.11-.39-2.22-.15-3.32.25-1.09.82-2.06 1.72-2.97.9-.9 1.88-1.48 2.97-1.73 1.11-.25 2.22-.19 3.32.18.99.34 1.94.94 2.88 1.88.96.96 1.62 2.01 1.98 3.15.34 1.11.39 2.21.16 3.31-.26 1.06-.83 2.03-1.73 2.97ZM34.25 39.35c.49-.49.76-1.04.83-1.64.06-.6-.1-1.2-.49-1.8-.32-.64-.77-1.27-1.35-1.89-.56-.56-1.14-.98-1.75-1.26-.61-.3-1.23-.37-1.86-.22-.63.15-1.17.48-1.63.99-.5.5-.76 1.05-.83 1.65-.07.59.1 1.19.48 1.79.4.6.86 1.22 1.36 1.86.56.56 1.13.98 1.74 1.26.61.3 1.22.37 1.84.22.62-.15 1.17-.49 1.66-1ZM31.93 20.11l12.34 12.34-2.18 2.18-12.34-12.34 2.18-2.18ZM50.11 26.94c-.73.73-1.57 1.19-2.52 1.38-.95.2-1.9.13-2.85-.22-.95-.35-1.9-.96-2.85-1.9-1-.98-1.7-2.01-2.09-3.08-.37-1.08-.44-2.14-.22-3.19.2-.94.62-1.81 1.27-2.59.54-.54 1.08-.91 1.62-1.13.54-.2 1.04-.28 1.5-.24.45.05.85.14 1.21.26l.09-.09-4.62-4.62 2.19-2.19 12.34 12.34-2.15 2.15-1.46-1.46-.13.13c.11.34.19.69.23 1.05.04.46-.03.94-.23 1.44-.2.5-.55.98-1.05 1.44ZM48.93 24.54c.46-.46.73-.96.81-1.48.08-.52-.03-1.06-.34-1.61-.32-.55-.72-1.1-1.2-1.66-.48-.48-.98-.85-1.5-1.13-.53-.3-1.06-.37-1.6-.22-.53.14-1.02.47-1.48.99-.46.46-.73.96-.81 1.48-.08.52.03 1.06.33 1.61.32.55.73 1.1 1.21 1.65.46.47.96.84 1.48 1.12.53.3 1.06.36 1.6.22.53-.14 1.02-.47 1.47-.99Z" fill="#FFF"/>
</svg>
